<?xml version="1.0" encoding="utf-8"?>
<!-- Generator: Adobe Illustrator 16.0.0, SVG Export Plug-In . SVG Version: 6.00 Build 0)  -->
<!DOCTYPE svg PUBLIC "-//W3C//DTD SVG 1.1//EN" "http://www.w3.org/Graphics/SVG/1.1/DTD/svg11.dtd">
<svg version="1.1" id="图层_1" xmlns="http://www.w3.org/2000/svg" xmlns:xlink="http://www.w3.org/1999/xlink" x="0px" y="0px"
	 width="283.46px" height="283.46px" viewBox="0 0 283.46 283.46" enable-background="new 0 0 283.46 283.46" xml:space="preserve">
<path d="M66.022,193.342l-3.802-3.354c-1.668-5.424-6.069-14.526-10.729-24.164c-5.254-10.872-10.687-22.113-13.177-30.078
	c-4.181-13.379-9.122-18.605-9.172-18.656c-1.491-1.545-1.47-4.014,0.061-5.518c1.536-1.505,3.978-1.506,5.492,0.013
	c0.253,0.253,6.254,6.374,11.084,21.83c2.317,7.411,7.623,18.386,12.754,29.005c2.468,5.105,4.866,10.069,6.863,14.499
	c9.336-31.844,19.669-68.731,19.786-69.142l3.391-1.082l4.074,0.869c0.491,1.437,12.061,35.314,14.838,48.269l1.301,6.179
	c1.293,6.185,3.296,15.767,5.072,22.609c2.255-5.874,4.588-12.369,7.008-19.104c8.709-24.246,17.715-49.314,27.853-59.45
	c1.527-1.527,3.999-1.527,5.529,0c1.526,1.526,1.526,4.001,0,5.528c-8.898,8.898-17.996,34.221-26.021,56.565
	c-3.798,10.573-7.387,20.563-10.855,28.657l-1.852,2.319l-3.913-0.607c-3.001-2.001-4.959-8.528-10.475-34.916l-1.295-6.144
	c-1.666-7.773-6.854-24.061-10.57-35.353c-4.531,16.03-12.715,44.805-19.562,67.834L66.022,193.342z"/>
<path d="M221.801,196.253c-7.13,0-13.693-2.055-19.27-6.084c-17.787-14.809-14.052-80.577-13.566-88.028
	c0.14-2.155,2.063-3.779,4.151-3.648c2.157,0.139,3.791,1.999,3.651,4.155c-1.24,19.145-1.761,71.082,10.557,81.349
	c6.98,5.027,15.033,4.888,20.514,3.851c8.965-1.696,17.799-7.131,22.167-13.598c5.456-17.109,7.446-63.505,0.101-77.382
	c-1.01-1.909-0.285-4.274,1.626-5.286c1.9-1.009,4.276-0.284,5.285,1.625c9.136,17.254,5.732,67.555,0.255,83.993l-0.421,0.879
	c-5.441,8.464-16.257,15.314-27.559,17.453C226.74,196.013,224.236,196.253,221.801,196.253z"/>
</svg>
